<svg xmlns="http://www.w3.org/2000/svg" width="1024" height="1024" viewBox="0 0 1024 1024">
  <path d="M0 0 C3.24 2.94 6.41 5.94 9.57 8.96 C10.39 9.74 11.21 10.53 12.06 11.33 C45.13 43.48 65.8 88.87 66.97 134.9 C67.27 164.98 59.65 192.02 44.57 217.96 C43.97 218.99 43.38 220.03 42.76 221.09 C35.23 233.47 25.6 244.55 15.57 254.96 C14.98 255.57 14.4 256.17 13.8 256.79 C6.12 264.72 -1.65 272.25 -10.43 278.96 C-11.11 279.49 -11.8 280.02 -12.5 280.57 C-46.54 307.05 -84.44 327.09 -124.43 342.96 C-125.3 343.33 -126.17 343.7 -127.07 344.08 C-130.12 345.22 -131.37 345.09 -134.43 343.96 C-136.75 342.23 -138.86 340.51 -141.0 338.59 C-141.61 338.04 -142.23 337.5 -142.87 336.94 C-144.73 335.29 -146.58 333.63 -148.43 331.96 C-149.41 331.1 -150.38 330.24 -151.38 329.35 C-157.83 323.56 -164.02 317.5 -170.18 311.4 C-171.4 310.2 -171.4 310.2 -172.64 308.98 C-173.39 308.23 -174.14 307.48 -174.92 306.71 C-175.6 306.03 -176.27 305.36 -176.97 304.67 C-178.43 302.96 -178.43 302.96 -178.43 300.96 C-207.77 305.85 -232.03 318.64 -253.5 339.2 C-255.47 341.09 -257.5 342.87 -259.61 344.61 C-263.36 347.74 -266.33 351.21 -269.43 354.96 C-269.86 355.48 -270.3 356.0 -270.74 356.53 C-294.61 383.44 -294.61 383.44 -307.43 414.96 C-306.7 415.31 -305.97 415.66 -305.21 416.03 C-298.66 419.17 -292.11 422.32 -285.57 425.48 C-282.31 427.06 -279.05 428.62 -275.78 430.18 C-258.87 438.35 -243.09 448.64 -227.43 458.96 C-226.8 459.38 -226.17 459.79 -225.52 460.22 C-211.2 469.61 -197.27 479.5 -183.61 489.82 C-171.36 499.06 -159.0 508.17 -146.43 516.96 C-145.89 517.34 -145.36 517.72 -144.8 518.11 C-109.68 542.76 -69.74 561.45 -27.87 571.02 C-26.19 571.41 -26.19 571.41 -24.48 571.8 C-4.52 576.27 15.2 578.2 35.63 578.21 C36.88 578.21 36.88 578.21 38.16 578.21 C100.48 578.13 160.58 557.77 205.23 513.31 C206.0 512.54 206.77 511.76 207.57 510.96 C208.37 510.2 208.37 510.2 209.2 509.43 C238.95 481.32 256.01 439.4 263.57 399.96 C263.9 399.96 264.23 399.96 264.57 399.96 C264.97 407.48 263.46 414.38 261.88 421.71 C261.61 423.0 261.33 424.28 261.05 425.61 C254.38 456.87 245.33 488.03 231.57 516.96 C231.28 517.57 230.99 518.18 230.69 518.81 C222.62 535.65 213.72 552.28 203.57 567.96 C203.19 568.54 202.82 569.12 202.44 569.71 C192.39 585.19 181.36 599.78 169.57 613.96 C169.06 614.57 168.56 615.18 168.05 615.8 C161.84 623.3 155.35 630.38 148.37 637.17 C145.74 639.74 143.22 642.3 140.89 645.16 C138.95 647.5 137.09 649.4 134.75 651.34 C131.95 653.73 129.32 656.19 126.75 658.84 C122.02 663.63 116.82 667.76 111.57 671.96 C110.44 672.89 109.32 673.81 108.2 674.74 C99.03 682.27 89.42 688.99 79.58 695.6 C77.22 697.19 74.93 698.85 72.63 700.52 C52.81 714.41 30.73 726.29 8.57 735.96 C7.88 736.26 7.2 736.56 6.5 736.88 C-7.22 742.93 -21.24 748.11 -35.43 752.96 C-36.36 753.28 -37.29 753.6 -38.24 753.93 C-92.46 772.26 -153.75 778.02 -210.43 770.96 C-211.36 770.85 -212.28 770.75 -213.24 770.64 C-225.04 769.26 -236.58 767.3 -248.13 764.51 C-250.54 763.94 -252.96 763.4 -255.38 762.88 C-310.35 750.68 -364.24 723.36 -408.81 689.21 C-410.45 687.95 -412.11 686.7 -413.77 685.45 C-424.25 677.54 -434.22 669.07 -443.92 660.23 C-445.33 658.96 -446.75 657.69 -448.19 656.45 C-453.52 651.86 -458.53 647.01 -463.5 642.02 C-464.64 640.88 -464.64 640.88 -465.81 639.72 C-470.56 634.96 -475.06 630.07 -479.43 624.96 C-480.38 623.88 -481.33 622.8 -482.29 621.71 C-490.09 612.77 -497.34 603.47 -504.43 593.96 C-505.23 592.9 -505.23 592.9 -506.05 591.82 C-515.4 579.39 -523.58 566.38 -531.43 552.96 C-532.12 551.79 -532.12 551.79 -532.83 550.59 C-561.59 501.26 -580.63 444.07 -584.43 386.96 C-584.52 385.76 -584.61 384.56 -584.7 383.33 C-585.44 372.58 -585.59 361.85 -585.56 351.08 C-585.56 348.27 -585.56 345.46 -585.57 342.65 C-585.58 329.51 -585.15 316.54 -583.25 303.52 C-583.06 302.23 -583.06 302.23 -582.87 300.92 C-571.62 226.8 -541.95 160.73 -495.43 101.96 C-494.7 101.03 -493.96 100.1 -493.2 99.14 C-488.01 92.68 -482.5 86.56 -476.85 80.5 C-475.41 78.94 -473.99 77.36 -472.57 75.78 C-468.05 70.76 -463.51 65.94 -458.32 61.59 C-456.31 59.85 -454.47 58.0 -452.62 56.09 C-448.69 52.09 -444.44 48.61 -440.07 45.1 C-437.9 43.34 -435.82 41.53 -433.75 39.65 C-419.56 27.14 -403.41 16.74 -387.15 7.17 C-384.73 5.74 -382.34 4.28 -379.96 2.79 C-369.8 -3.58 -359.13 -8.7 -348.26 -13.73 C-345.71 -14.91 -343.17 -16.11 -340.64 -17.32 C-299.23 -36.76 -252.08 -51.42 -206.56 -56.78 C-204.48 -57.03 -202.4 -57.34 -200.32 -57.65 C-131.39 -67.47 -52.19 -46.59 0 0 Z " fill="#36383b" transform="translate(672.43 143.04)"/>
  <path d="M 0 0 C 1.23 0.35 2.47 0.7 3.74 1.05 C 18.91 5.71 32.32 13.55 45 23 C 45.56 23.41 46.12 23.82 46.69 24.24 C 58.58 33.02 69.11 43.17 78.67 54.45 C 80.34 56.4 82.14 58.22 84 60 C 82.02 61.48 82.02 61.48 80 63 C 80 62.34 79.379 62.313 79.379 61.633 C 50.039 66.513 26.4 78.68 4.94 99.24 C 2.96 101.13 0.94 102.91 -1.18 104.64 C -4.93 107.77 -7.89 111.25 -11 115 C -11.43 115.52 -11.875 116.028 -12.31 116.57 C -34.898 144.705 -35.408 144.048 -49 175 C -48.27 175.35 -47.53 175.7 -46.78 176.07 C -40.22 179.21 -33.67 182.36 -27.13 185.52 C -23.87 187.1 -20.61 188.66 -17.35 190.22 C -0.43 198.39 15.34 208.68 31 219 C 31.63 219.41 32.26 219.83 32.92 220.26 C 47.23 229.65 61.16 239.54 74.83 249.86 C 87.07 259.1 99.43 268.21 112 277 C 112.54 277.38 113.08 277.76 113.63 278.15 C 148.75 302.8 188.69 321.49 230.56 331.06 C 231.68 331.32 232.8 331.58 233.96 331.84 C 253.91 336.31 273.64 338.24 294.06 338.25 C 295.31 338.25 295.31 338.25 296.59 338.25 C 358.91 338.17 419.01 317.81 463.66 273.35 C 464.43 272.58 465.2 271.8 466 271 C 466.81 270.24 466.81 270.24 467.63 269.47 C 497.38 241.36 514.44 199.44 522 160 C 522.33 160 522.66 160 523 160 C 523.4 167.52 521.89 174.42 520.31 181.75 C 520.04 183.04 519.77 184.32 519.49 185.65 C 512.82 216.91 503.77 248.06 490 277 C 489.71 277.61 489.42 278.22 489.12 278.85 C 481.06 295.69 472.15 312.32 462 328 C 461.63 328.58 461.25 329.15 460.87 329.75 C 450.83 345.23 439.8 359.82 428 374 C 427.5 374.61 427 375.21 426.48 375.84 C 420.27 383.34 413.79 390.42 406.81 397.21 C 404.17 399.78 401.66 402.34 399.33 405.2 C 397.38 407.54 395.52 409.44 393.19 411.38 C 390.38 413.76 387.75 416.23 385.19 418.88 C 380.45 423.67 375.26 427.8 370 432 C 368.88 432.93 367.75 433.85 366.63 434.78 C 357.46 442.31 347.86 449.03 338.01 455.64 C 335.66 457.23 333.36 458.89 331.06 460.56 C 311.24 474.45 289.16 486.33 267 496 C 266.32 496.3 265.64 496.6 264.93 496.91 C 251.21 502.97 237.19 508.15 223 513 C 222.07 513.32 221.15 513.64 220.19 513.97 C 165.97 532.3 104.68 538.06 48 531 C 47.07 530.89 46.15 530.79 45.2 530.68 C 33.39 529.3 21.85 527.34 10.3 524.55 C 7.89 523.97 5.48 523.44 3.06 522.91 C -34.14 514.66 -69.89 499.13 -103 480.44 C -104.27 479.72 -104.27 479.72 -105.57 478.99 C -110.01 476.42 -113.47 473.79 -117 470 C -118.59 468.69 -120.19 467.4 -121.81 466.12 C -128.17 460.98 -134.07 455.4 -140 449.77 C -143.03 446.9 -146.1 444.08 -149.19 441.28 C -155.89 435.21 -162.04 428.79 -168 422 C -168.48 421.46 -168.96 420.92 -169.45 420.37 C -181.53 406.72 -192.19 392.26 -201.86 376.81 C -202.81 375.3 -203.77 373.8 -204.74 372.3 C -226.04 338.43 -235.09 295.55 -236 256 C -236.02 255.22 -236.04 254.44 -236.06 253.63 C -237.74 180.88 -213.72 109.75 -164 56 C -163.09 54.99 -162.18 53.98 -161.28 52.96 C -156.15 47.25 -150.93 41.9 -145 37 C -144.13 36.24 -143.26 35.49 -142.37 34.71 C -102.32 0.27 -51.4 -14.71 0 0 Z" fill="#333436" transform="translate(414 383)"/>
  <path d="M0 0 C6.31 1.15 11.76 2.99 17.52 5.78 C18.3 6.15 19.08 6.52 19.89 6.9 C22.39 8.09 24.88 9.29 27.38 10.5 C29.1 11.33 30.83 12.16 32.56 12.99 C51.39 22.04 69.39 31.73 87 43 C87.62 43.39 88.24 43.79 88.88 44.2 C101.75 52.42 113.45 62.04 125 72 C125.72 72.61 126.43 73.23 127.17 73.86 C129.13 75.56 131.07 77.27 133 79 C133.87 79.77 134.73 80.55 135.62 81.34 C147.59 92.16 159.05 103.29 169 116 C170.37 117.65 171.75 119.29 173.12 120.94 C183.58 133.75 193.43 146.95 201.9 161.16 C202.95 162.91 204.03 164.64 205.12 166.38 C253.31 243.52 277.7 347.89 258.03 450.41 C248.81 489.81 228.58 524.56 200 553 C199.35 553.68 198.7 554.37 198.04 555.07 C165.29 589.18 117.91 607.2 72 614 C71.22 614.12 70.44 614.24 69.64 614.36 C43.1 618.29 14.38 617.35 -12 613 C-13.53 612.75 -13.53 612.75 -15.1 612.5 C-63.94 604.27 -112.68 583.22 -152.26 553.3 C-155.06 551.21 -157.91 549.18 -160.75 547.14 C-167.49 542.31 -174.17 537.4 -180.79 532.41 C-192.06 523.93 -203.43 515.63 -215 507.56 C-216.4 506.59 -216.4 506.59 -217.82 505.59 C-224.11 501.23 -230.52 497.08 -237 493 C-238.82 491.83 -240.64 490.66 -242.46 489.5 C-259.08 478.92 -276.2 469.49 -294.05 461.18 C-295.64 460.44 -295.64 460.44 -297.25 459.68 C-299.34 458.7 -301.44 457.73 -303.55 456.77 C-304.5 456.32 -305.45 455.88 -306.43 455.42 C-307.29 455.02 -308.15 454.63 -309.03 454.22 C-311 453 -311 453 -312 450 C-311.31 448.09 -311.31 448.09 -310.16 445.94 C-309.53 444.75 -309.53 444.75 -308.89 443.54 C-308.2 442.28 -308.2 442.28 -307.5 441 C-307.04 440.14 -306.57 439.27 -306.09 438.39 C-302.66 432.07 -299.07 425.93 -295 420 C-294.36 419.06 -294.36 419.06 -293.71 418.1 C-287.0 408.25 -279.92 398.92 -272 390 C-271.13 389.01 -270.26 388.02 -269.37 387 C-264.54 381.57 -259.59 376.63 -254 372 C-253.12 371.23 -252.24 370.46 -251.33 369.67 C-232.26 353.25 -209.96 341.72 -185.12 337.31 C-181.54 338.1 -181.12 338.71 -178.88 341.45 C-174.74 346.36 -170.29 350.9 -165.75 355.44 C-164.91 356.28 -164.07 357.12 -163.2 357.98 C-157.39 363.74 -151.47 369.0 -145 374 C-143.17 375.54 -141.33 377.08 -139.5 378.62 C-111.89 401.04 -72.54 404.53 -38.17 401.77 C-33.5 401.26 -28.92 400.47 -24.33 399.49 C-21.79 398.96 -19.25 398.48 -16.7 398.0 C-3.3 395.37 8.71 390.91 21 385 C21.7 384.67 22.39 384.34 23.11 384.0 C38.61 376.61 51.71 365.86 64 354 C64.78 353.28 65.55 352.55 66.35 351.8 C88.81 330.29 104.14 301.15 114 272 C114.28 271.18 114.56 270.36 114.85 269.51 C119.31 256.26 122.02 242.83 124 229 C124.16 227.93 124.16 227.93 124.32 226.84 C129.5 187.2 121.98 145.51 104 110 C103.45 108.84 102.89 107.67 102.32 106.47 C93.37 87.85 81.05 71.1 67 56 C65.89 54.71 64.79 53.42 63.69 52.12 C55.56 42.84 46.7 34.61 37 27 C35.91 26.12 34.82 25.24 33.73 24.35 C23.97 16.49 13.73 9.5 3.06 2.94 C2.05 2.3 1.04 1.66 0 1 C0 0.67 0 0.34 0 0 Z " fill="#E1061D" transform="translate(676 106)"/>
  <path d="M 0 0 C 0.33 0 1.231 -8.648 1.571 -8.648 C 2.053 -1.128 0.114 14.42 -1.69 21.75 C -2.005 23.03 -2.23 24.32 -2.51 25.65 C -9.18 56.91 -18.23 88.06 -32 117 C -32.29 117.61 -32.58 118.22 -32.88 118.85 C -40.94 135.69 -49.85 152.32 -60 168 C -60.37 168.58 -60.75 169.15 -61.13 169.75 C -71.17 185.23 -82.2 199.82 -94 214 C -94.5 214.61 -95 215.21 -95.52 215.84 C -101.73 223.34 -108.21 230.42 -115.19 237.21 C -117.83 239.78 -120.074 242.579 -122.67 245.2 C -124.752 247.302 -126.692 249.079 -128.689 251.561 C -131.074 254.524 -134.41 256.39 -137.06 259.12 C -141.4 263.5 -137.147 259.114 -141.559 262.643 C -144.26 264.803 -156.28 270.76 -159.02 272.72 C -164.21 276.26 -169.68 278.92 -175.38 281.56 C -176.34 282.02 -177.3 282.47 -178.3 282.94 C -180.24 283.86 -182.19 284.77 -184.14 285.67 C -185.99 286.53 -187.83 287.4 -189.66 288.28 C -197.1 291.78 -204.75 294.45 -212.56 297 C -213.23 297.22 -213.89 297.44 -214.58 297.66 C -217.9 298.75 -221.22 299.82 -224.54 300.89 C -226.55 301.53 -228.56 302.18 -230.56 302.85 C -303.27 326.76 -390.14 317.02 -458.08 283.48 C -478.31 273.13 -497.32 261.27 -515 247 C -515.59 246.53 -516.18 246.05 -516.79 245.57 C -531.95 233.31 -546.35 219.42 -557.81 203.62 C -558.98 202.02 -560.2 200.46 -561.43 198.91 C -586.22 166.76 -598.97 124.16 -594.13 83.79 C -591.07 60.66 -585.1 33.66 -572 14 C -570.55 14.73 -570.55 14.73 -569.06 15.47 C -568.42 15.79 -567.78 16.11 -567.13 16.44 C -565.69 17.16 -564.25 17.88 -562.81 18.6 C -559.22 20.39 -555.64 22.18 -552.04 23.96 C -537.03 31.4 -522.11 38.92 -508 48 C -507.35 48.41 -506.71 48.83 -506.04 49.25 C -501.01 52.47 -496 55.73 -491 59 C -490.36 59.42 -489.72 59.84 -489.05 60.27 C -474.75 69.66 -460.83 79.55 -447.17 89.86 C -434.93 99.1 -422.57 108.21 -410 117 C -409.46 117.38 -408.92 117.76 -408.37 118.15 C -373.25 142.8 -333.31 161.49 -291.44 171.06 C -290.32 171.32 -289.2 171.58 -288.04 171.84 C -268.09 176.31 -248.36 178.24 -227.94 178.25 C -226.69 178.25 -226.69 178.25 -225.41 178.25 C -163.09 178.17 -102.99 157.81 -58.34 113.35 C -57.57 112.58 -56.8 111.8 -56 111 C -55.46 110.5 -54.92 109.99 -54.37 109.47 C -24.62 81.36 -7.56 39.44 0 0 Z" fill="#5a5a5a" transform="translate(936 543)"/>
  <path d="M0 0 C3.24 2.94 6.41 5.94 9.57 8.96 C10.39 9.74 11.21 10.53 12.06 11.33 C45.13 43.48 65.8 88.87 66.97 134.9 C67.27 164.98 59.65 192.02 44.57 217.96 C43.97 218.99 43.38 220.03 42.76 221.09 C35.23 233.47 25.6 244.55 15.57 254.96 C14.98 255.57 14.4 256.17 13.8 256.79 C6.12 264.72 -1.65 272.25 -10.43 278.96 C-11.11 279.49 -11.8 280.02 -12.5 280.57 C-46.54 307.05 -84.44 327.09 -124.43 342.96 C-125.3 343.33 -126.17 343.7 -127.07 344.08 C-130.12 345.22 -131.37 345.09 -134.43 343.96 C-136.75 342.23 -138.86 340.51 -141.0 338.59 C-141.61 338.04 -142.23 337.5 -142.86 336.94 C-144.73 335.29 -146.58 333.63 -148.43 331.96 C-149.91 330.65 -149.91 330.65 -151.42 329.32 C-160.43 321.21 -168.92 312.58 -177.43 303.96 C-176.43 300.96 -176.43 300.96 -174.65 299.92 C-173.49 299.46 -173.49 299.46 -172.3 298.98 C-171.44 298.63 -170.58 298.27 -169.69 297.9 C-168.76 297.53 -167.83 297.16 -166.87 296.77 C-158.15 293.16 -149.67 289.29 -141.3 284.93 C-139.45 283.97 -137.6 283.04 -135.75 282.11 C-116.64 272.37 -99.63 259.42 -83.41 245.5 C-81.35 243.74 -79.28 242.01 -77.18 240.29 C-74.51 238.03 -72.57 235.72 -70.43 232.96 C-68.78 231.29 -67.11 229.62 -65.43 227.96 C-43.94 206.04 -21.54 174.36 -20.16 142.62 C-20.23 137.65 -21.69 133.84 -23.81 129.4 C-24.17 128.62 -24.53 127.85 -24.9 127.05 C-37.54 100.51 -58.45 77.0 -81.43 58.96 C-82.41 58.18 -83.38 57.4 -84.39 56.6 C-141.43 11.67 -213.06 -16.33 -285.87 -16.23 C-286.75 -16.23 -287.64 -16.22 -288.55 -16.22 C-311.77 -16.16 -332.88 -13.8 -355.43 -8.04 C-356.77 -7.7 -358.1 -7.37 -359.43 -7.04 C-356.87 -10.03 -354.03 -11.35 -350.48 -12.97 C-349.89 -13.25 -349.29 -13.52 -348.68 -13.8 C-346.7 -14.7 -344.73 -15.59 -342.75 -16.48 C-342.06 -16.78 -341.37 -17.09 -340.67 -17.41 C-298.59 -36.22 -252.49 -51.37 -206.56 -56.78 C-204.48 -57.03 -202.4 -57.34 -200.32 -57.65 C-131.39 -67.47 -52.19 -46.59 0 0 Z " fill="#7c7c7c" transform="translate(672.43 143.04)"/>
  <path d="M0 0 C1.23 0.35 2.47 0.7 3.74 1.05 C18.98 5.73 32.19 13.67 45 23 C46.44 23.98 47.87 24.96 49.31 25.94 C50.2 26.62 51.09 27.3 52 28 C52 28.66 52 29.32 52 30 C50.98 30.1 50.98 30.1 49.95 30.2 C-3.98 35.49 -50.45 57.47 -89.25 95.29 C-90.84 96.84 -92.44 98.37 -94.05 99.9 C-100.58 106.2 -106.19 112.95 -111.63 120.19 C-112.97 121.97 -114.34 123.73 -115.71 125.49 C-139.27 156.13 -155.26 194.5 -161.12 232.62 C-161.29 233.68 -161.46 234.73 -161.64 235.82 C-163.46 247.42 -164.24 258.76 -164.25 270.5 C-164.25 271.22 -164.25 271.94 -164.25 272.69 C-164.19 345.26 -133.42 409.38 -82.81 460.31 C-78.36 464.74 -73.83 468.99 -69 473 C-68.49 473.44 -67.97 473.88 -67.44 474.33 C-44.98 493.46 -18.16 511.87 10.19 520.81 C10.85 521.03 11.52 521.24 12.21 521.47 C13.8 521.98 15.4 522.49 17 523 C16.67 523.66 16.34 524.32 16 525 C-26.08 520.04 -67.77 500.69 -104.25 479.81 C-104.99 479.39 -105.72 478.97 -106.48 478.54 C-110.57 476.11 -113.71 473.47 -117 470 C-118.59 468.69 -120.19 467.4 -121.81 466.12 C-128.17 460.98 -134.07 455.4 -140.0 449.77 C-143.03 446.9 -146.1 444.08 -149.19 441.28 C-155.89 435.21 -162.04 428.79 -168 422 C-168.48 421.46 -168.96 420.92 -169.45 420.37 C-181.53 406.72 -192.19 392.26 -201.86 376.81 C-202.81 375.3 -203.77 373.8 -204.74 372.3 C-226.04 338.43 -235.09 295.55 -236 256 C-236.02 255.22 -236.04 254.44 -236.06 253.63 C-237.74 180.88 -213.72 109.75 -164 56 C-163.09 54.99 -162.18 53.98 -161.28 52.96 C-156.15 47.25 -150.93 41.9 -145 37 C-144.13 36.24 -143.26 35.49 -142.37 34.71 C-102.32 0.27 -51.4 -14.71 0 0 Z " fill="#575757" transform="translate(414 383)"/>
  <path d="M 0 0 C 0.33 0 0.66 0 1 0 C 6.15 67.77 -0.03 137.04 -44.93 191.59 C -50.4 197.95 -56.06 204.08 -62 210 C -62.65 210.68 -63.3 211.37 -63.96 212.07 C -96.71 246.18 -144.09 264.2 -190 271 C -190.78 271.12 -191.56 271.24 -192.36 271.36 C -218.9 275.29 -247.62 274.35 -274 270 C -275.02 269.83 -276.05 269.67 -277.1 269.5 C -325.94 261.27 -374.68 240.22 -414.26 210.3 C -417.06 208.21 -419.91 206.18 -422.75 204.14 C -429.49 199.31 -436.17 194.4 -442.79 189.41 C -454.06 180.93 -465.43 172.63 -477 164.56 C -477.93 163.91 -478.86 163.26 -479.82 162.59 C -486.11 158.23 -492.52 154.08 -499 150 C -500.82 148.83 -502.64 147.66 -504.46 146.5 C -521.08 135.92 -538.2 126.49 -556.05 118.18 C -557.11 117.68 -558.16 117.19 -559.25 116.68 C -561.34 115.7 -563.44 114.73 -565.55 113.77 C -566.5 113.32 -567.45 112.88 -568.43 112.42 C -569.72 111.83 -569.72 111.83 -571.03 111.22 C -573 110 -573.98 111.332 -574.98 108.332 C -574.29 106.422 -573.31 105.09 -572.16 102.94 C -571.53 101.75 -571.53 101.75 -570.89 100.54 C -570.43 99.7 -569.97 98.86 -569.5 98 C -568.8 96.71 -568.8 96.71 -568.09 95.39 C -564.66 89.07 -561.07 82.93 -557 77 C -556.55 76.34 -556.1 75.68 -555.63 75.01 C -554.07 72.75 -552.51 70.5 -550.94 68.25 C -550.2 67.19 -550.2 67.19 -549.44 66.1 C -547.99 64.05 -546.49 62.02 -545 60 C -544.53 59.3 -544.06 58.61 -543.57 57.89 C -542.16 55.96 -540.91 54.44 -539 53 C -532.22 52.62 -526.2 55.67 -520.06 58.31 C -519.02 58.76 -517.97 59.2 -516.89 59.66 C -475.49 77.5 -438.32 101.27 -403.57 129.89 C -401.11 131.91 -398.62 133.9 -396.12 135.88 C -392.88 138.45 -389.72 141.1 -386.59 143.82 C -372.79 155.74 -357.78 165.9 -342 175 C -341.32 175.4 -340.63 175.79 -339.93 176.2 C -321.16 186.97 -300.96 193.92 -280 199 C -279.32 199.17 -278.64 199.33 -277.94 199.51 C -213.19 215.24 -139.84 200.12 -83 167 C -77.11 163.3 -71.51 159.23 -66 155 C -64.52 153.88 -64.52 153.88 -63 152.74 C -49.3 141.98 -38.45 129.59 -29 115 C -28.33 113.98 -27.67 112.97 -26.98 111.92 C -8.59 82.2 -2.84 46.23 -1.34 11.91 C -1.16 7.87 -0.75 4.98 0 0 Z" fill="#C50118" transform="translate(938 449)"/>
  <path d="M0 0 C0.85 0.12 1.69 0.24 2.56 0.36 C40.55 5.73 76.04 19.6 110 37 C110.88 37.45 111.77 37.9 112.67 38.37 C147.7 56.56 181.41 82.14 205 114 C205.43 114.57 205.87 115.14 206.31 115.73 C227 143.09 227 143.09 227 156 C185.31 166.55 136.29 157.29 98 140 C96.87 139.5 96.87 139.5 95.72 138.98 C82.09 132.82 69.5 124.58 57.02 116.4 C23.61 94.64 -14.48 81.52 -54 77 C-55.25 76.85 -55.25 76.85 -56.53 76.69 C-92.3 72.32 -127.5 75.88 -162 86 C-162.81 86.23 -163.61 86.47 -164.45 86.71 C-196.23 96.2 -226.08 115.27 -250 138 C-251.31 139.13 -252.62 140.26 -253.94 141.38 C-264.42 150.5 -273.75 160.72 -282.25 171.69 C-282.67 172.23 -283.1 172.78 -283.54 173.35 C-285.41 175.8 -287.13 178.22 -288.67 180.89 C-289.11 181.59 -289.55 182.28 -290 183 C-290.66 183 -291.32 183 -292 183 C-290.49 177.52 -287.86 173.15 -284.88 168.38 C-284.38 167.58 -283.88 166.78 -283.37 165.95 C-272.83 149.02 -261.38 132.64 -249 117 C-248.26 116.07 -247.53 115.14 -246.77 114.18 C-241.57 107.72 -236.06 101.6 -230.42 95.54 C-228.98 93.98 -227.56 92.4 -226.14 90.82 C-221.62 85.8 -217.07 80.98 -211.88 76.63 C-209.87 74.89 -208.04 73.04 -206.19 71.12 C-202.26 67.13 -198.0 63.64 -193.64 60.14 C-191.46 58.38 -189.38 56.57 -187.31 54.69 C-172.58 41.7 -155.78 31.08 -138.9 21.13 C-136.94 19.96 -134.99 18.77 -133.04 17.58 C-121.9 10.75 -111.73 6.38 -98.99 3.46 C-97.21 3.05 -95.44 2.6 -93.66 2.15 C-64.48 -4.88 -29.61 -4.55 0 0 Z " fill="#42444b" transform="translate(426 128)"/>
  <path d="M 0.104 0.059 C 44.744 21.019 44.64 20.96 65 34 C 65.97 34.62 65.97 34.62 66.97 35.26 C 72 38.48 77 41.73 82 45 C 82.64 45.42 83.28 45.84 83.95 46.27 C 98.25 55.66 112.17 65.55 125.83 75.86 C 138.07 85.1 150.43 94.21 163 103 C 163.54 103.38 164.08 103.76 164.63 104.15 C 199.75 128.8 239.69 147.49 281.56 157.06 C 282.68 157.32 283.8 157.58 284.96 157.84 C 304.91 162.31 324.64 164.24 345.06 164.25 C 346.31 164.25 346.31 164.25 347.59 164.25 C 400.88 164.18 456.68 149.75 498.02 114.56 C 499.94 113.05 501.78 112 504 111 C 503.64 116.12 500.8 118.82 497.38 122.31 C 496.27 123.47 495.16 124.63 494.05 125.79 C 493.52 126.35 492.99 126.9 492.44 127.47 C 490.72 129.3 489.1 131.2 487.5 133.12 C 474.19 148.41 457.07 161.25 440 172 C 438.94 172.68 437.87 173.37 436.77 174.07 C 391.29 202.79 339.73 215.33 286.31 215.44 C 285.36 215.44 284.41 215.45 283.44 215.46 C 234.89 215.66 184.88 201.56 142.04 179.07 C 139.83 177.91 137.61 176.79 135.39 175.66 C 125.13 170.43 115.42 164.66 105.86 158.24 C 104.2 157.13 102.52 156.04 100.84 154.95 C 87.49 146.26 74.99 136.47 63 126 C 62.2 125.31 61.4 124.62 60.57 123.91 C 48.44 113.27 36.86 101.79 27 89 C 26.14 87.94 25.27 86.88 24.41 85.82 C 11.3 69.69 -9 44.28 -9 22.69 C -7.52 17.23 -5.546 12.046 -3.266 6.886 C -2.266 4.556 -0.896 2.389 0.104 0.059 Z" fill="#4f5057" transform="translate(363 557)"/>
  <path d="M 0 0 C 6.31 1.15 11.76 2.99 17.52 5.78 C 18.3 6.15 19.08 6.52 19.89 6.9 C 22.39 8.09 24.88 9.29 27.38 10.5 C 29.1 11.33 30.83 12.16 32.56 12.99 C 51.39 22.04 69.39 31.73 87 43 C 87.62 43.39 88.24 43.79 88.88 44.2 C 101.75 52.42 113.45 62.04 125 72 C 125.72 72.61 126.43 73.23 127.17 73.86 C 133.23 79.11 139.13 84.54 145 90 C 146.19 91.11 146.19 91.11 147.41 92.24 C 150.95 95.64 154.358 98.555 156.578 102.945 C 157.808 104.791 158.891 106.771 160.551 108.726 C 164.003 112.792 166.83 116.86 169.75 121.31 C 170.26 122.09 170.77 122.86 171.3 123.66 C 180.76 138.17 188.98 153.16 196 169 C 196.29 169.64 196.57 170.29 196.87 170.95 C 201.72 181.96 205.07 193.35 208 205 C 208.21 205.81 208.43 206.62 208.65 207.46 C 215.7 235.13 214.87 269.35 208 297 C 207.82 297.78 207.64 298.56 207.45 299.37 C 199.71 332.25 183.84 361.84 161.08 386.7 C 159.35 388.61 157.73 390.56 156.12 392.56 C 152.02 397.38 146.95 401.11 142 405 C 140.53 406.21 140.53 406.21 139.03 407.45 C 119.09 423.51 95.64 432.84 71 439 C 70.09 439.23 69.18 439.46 68.24 439.69 C 41.93 445.94 10.43 445.59 -16 440 C -16.81 439.83 -17.62 439.67 -18.45 439.5 C -55.61 431.63 -89.402 413.599 -120.462 392.209 C -128.673 385.351 -120.49 390.973 -114.589 392.984 C -113.883 393.225 -113.221 393.583 -112.49 393.84 C -85.133 403.476 -52.599 404.801 -24.33 399.49 C -21.78 399.011 -19.25 398.48 -16.7 398 C -3.3 395.37 8.71 390.91 21 385 C 21.7 384.67 22.39 384.34 23.11 384 C 38.61 376.61 51.71 365.86 64 354 C 64.78 353.28 65.55 352.55 66.35 351.8 C 88.81 330.29 104.14 301.15 114 272 C 114.28 271.18 114.56 270.36 114.85 269.51 C 119.31 256.26 122.02 242.83 124 229 C 124.11 228.29 124.21 227.58 124.32 226.84 C 129.5 187.2 121.98 145.51 104 110 C 103.45 108.84 102.89 107.67 102.32 106.47 C 93.37 87.85 81.05 71.1 67 56 C 65.89 54.71 64.79 53.42 63.69 52.12 C 55.56 42.84 46.7 34.61 37 27 C 35.91 26.12 34.82 25.24 33.73 24.35 C 23.97 16.49 13.73 9.5 3.06 2.94 C 2.05 2.3 1.04 1.66 0 1 C 0 0.67 0 0.34 0 0 Z" fill="#F2930C" transform="translate(676 106)"/>
</svg>