<?xml version="1.0" encoding="UTF-8"?>
<svg version="1.1" xmlns="http://www.w3.org/2000/svg" width="1024" height="1024">
<path d="M0 0 C3.2386692 2.93542128 6.41215133 5.93529644 9.56640625 8.9609375 C10.39011719 9.74339844 11.21382812 10.52585937 12.0625 11.33203125 C45.13078462 43.48334438 65.79608841 88.86854258 66.96923828 134.90307617 C67.27300995 164.98288957 59.64880203 192.01740117 44.56640625 217.9609375 C43.97085938 218.99347656 43.3753125 220.02601563 42.76171875 221.08984375 C35.22843545 233.47110123 25.59704845 244.55461581 15.56640625 254.9609375 C14.98310547 255.56615234 14.39980469 256.17136719 13.79882812 256.79492188 C6.11561873 264.71848193 -1.65056922 272.24897184 -10.43359375 278.9609375 C-11.11454102 279.49122559 -11.79548828 280.02151367 -12.49707031 280.56787109 C-46.53710233 307.04587295 -84.43824597 327.08756724 -124.43359375 342.9609375 C-125.30314697 343.32912598 -126.1727002 343.69731445 -127.06860352 344.07666016 C-130.12433009 345.21920601 -131.36990357 345.09427251 -134.43359375 343.9609375 C-136.75053573 342.23118556 -138.85675356 340.51181935 -140.99609375 338.5859375 C-141.61323242 338.04211426 -142.23037109 337.49829102 -142.86621094 336.93798828 C-144.73083424 335.28858757 -146.58273295 333.62574902 -148.43359375 331.9609375 C-149.40683594 331.09984375 -150.38007812 330.23875 -151.3828125 329.3515625 C-157.83497835 323.55631173 -164.02256937 317.50047591 -170.18359375 311.3984375 C-171.40127441 310.20033447 -171.40127441 310.20033447 -172.64355469 308.97802734 C-173.39411133 308.22859863 -174.14466797 307.47916992 -174.91796875 306.70703125 C-175.59569336 306.03341553 -176.27341797 305.3597998 -176.97167969 304.66577148 C-178.43359375 302.9609375 -178.43359375 302.9609375 -178.43359375 300.9609375 C-207.77130869 305.84550017 -232.03463093 318.64261005 -253.49609375 339.19921875 C-255.47213983 341.09009613 -257.49791602 342.87192662 -259.61328125 344.60546875 C-263.36118567 347.73564377 -266.3262865 351.20675588 -269.43359375 354.9609375 C-269.86446289 355.47946289 -270.29533203 355.99798828 -270.73925781 356.53222656 C-294.60990954 383.43744058 -294.60990954 383.43744058 -307.43359375 414.9609375 C-306.69947266 415.31285156 -305.96535156 415.66476562 -305.20898438 416.02734375 C-298.65661179 419.17018495 -292.10804893 422.32070645 -285.56517029 425.48326111 C-282.3074789 427.05771363 -279.04619362 428.62425128 -275.78125 430.18359375 C-258.86832168 438.34721623 -243.08879798 448.63598512 -227.43359375 458.9609375 C-226.80146973 459.37553223 -226.1693457 459.79012695 -225.51806641 460.21728516 C-211.20182079 469.61127415 -197.26933206 479.50253063 -183.60546875 489.8203125 C-171.36109178 499.05935821 -159.00485443 508.17064577 -146.43359375 516.9609375 C-145.89476562 517.3410498 -145.3559375 517.72116211 -144.80078125 518.11279297 C-109.68063807 542.75722993 -69.7441977 561.45088572 -27.87109375 571.0234375 C-26.19152588 571.40858521 -26.19152588 571.40858521 -24.47802734 571.80151367 C-4.52176733 576.27299957 15.2043989 578.19599138 35.62890625 578.2109375 C36.88021332 578.21194962 36.88021332 578.21194962 38.15679932 578.21298218 C100.47722516 578.13344443 160.57544156 557.76691996 205.2265625 513.3125 C205.99871094 512.53648437 206.77085937 511.76046875 207.56640625 510.9609375 C208.37464844 510.20490234 208.37464844 510.20490234 209.19921875 509.43359375 C238.94766142 481.32053667 256.00982847 439.40097063 263.56640625 399.9609375 C263.89640625 399.9609375 264.22640625 399.9609375 264.56640625 399.9609375 C264.96856582 407.48038616 263.45857503 414.38129342 261.87890625 421.7109375 C261.6063501 422.99701904 261.33379395 424.28310059 261.05297852 425.6081543 C254.38387114 456.86872759 245.33454946 488.0255788 231.56640625 516.9609375 C231.27620605 517.57163086 230.98600586 518.18232422 230.68701172 518.81152344 C222.62295094 535.65258622 213.71709437 552.28443099 203.56640625 567.9609375 C203.19338379 568.53827637 202.82036133 569.11561523 202.43603516 569.71044922 C192.39239638 585.19285189 181.36400952 599.7772618 169.56640625 613.9609375 C169.06496094 614.56824707 168.56351563 615.17555664 168.046875 615.80126953 C161.83915901 623.30089476 155.35453071 630.37847088 148.37329102 637.16845703 C145.73910446 639.73710512 143.22224092 642.30395492 140.89453125 645.15625 C138.94568969 647.50401551 137.08920436 649.39886918 134.75390625 651.3359375 C131.94545384 653.72521791 129.31865005 656.18710374 126.75390625 658.8359375 C122.01800443 663.62690795 116.82381124 667.76033074 111.56640625 671.9609375 C110.44155473 672.88662081 109.31790262 673.81376306 108.1953125 674.7421875 C99.02743482 682.27222809 89.42435442 688.99413479 79.57519531 695.59960938 C77.22398217 697.19299349 74.9251075 698.85199772 72.62890625 700.5234375 C52.80844223 714.40799663 30.72844948 726.28721745 8.56640625 735.9609375 C7.88433105 736.26273926 7.20225586 736.56454102 6.49951172 736.87548828 C-7.22472124 742.92714269 -21.24381958 748.11132466 -35.43359375 752.9609375 C-36.36091309 753.27949707 -37.28823242 753.59805664 -38.24365234 753.92626953 C-92.45884534 772.25929431 -153.74991067 778.01686395 -210.43359375 770.9609375 C-211.35881836 770.85378418 -212.28404297 770.74663086 -213.23730469 770.63623047 C-225.03982984 769.25960317 -236.58419426 767.29858058 -248.13232422 764.50683594 C-250.54109609 763.9354362 -252.95629231 763.40266674 -255.375 762.875 C-310.35073734 750.67733997 -364.23734729 723.35500897 -408.80566406 689.20800781 C-410.4528241 687.94620615 -412.11018739 686.69884657 -413.76953125 685.453125 C-424.24546424 677.54398888 -434.22444831 669.07089421 -443.921875 660.2265625 C-445.33141097 658.95513037 -446.74767964 657.69076503 -448.18676758 656.45288086 C-453.51993082 651.8613328 -458.53360155 647.01118412 -463.49609375 642.0234375 C-464.64174805 640.88358398 -464.64174805 640.88358398 -465.81054688 639.72070312 C-470.55932279 634.9638027 -475.06307057 630.06557461 -479.43359375 624.9609375 C-480.38304233 623.87796526 -481.33351159 622.79588673 -482.28515625 621.71484375 C-490.08710962 612.77049628 -497.33898744 603.4726203 -504.43359375 593.9609375 C-505.23216797 592.90181152 -505.23216797 592.90181152 -506.046875 591.82128906 C-515.39859808 579.39214373 -523.58201065 566.3814137 -531.43359375 552.9609375 C-532.12364502 551.7857959 -532.12364502 551.7857959 -532.82763672 550.58691406 C-561.58573138 501.25932269 -580.6282104 444.06627033 -584.43359375 386.9609375 C-584.52044434 385.76283447 -584.60729492 384.56473145 -584.69677734 383.33032227 C-585.43626858 372.57598358 -585.5884913 361.85341717 -585.56396484 351.07592773 C-585.55857961 348.26605895 -585.56396142 345.45634852 -585.5703125 342.64648438 C-585.57601691 329.51313 -585.14878345 316.54046891 -583.24609375 303.5234375 C-583.05817261 302.23457642 -583.05817261 302.23457642 -582.86645508 300.91967773 C-571.62419511 226.79566731 -541.95405928 160.72768452 -495.43359375 101.9609375 C-494.69625 101.02894531 -493.95890625 100.09695312 -493.19921875 99.13671875 C-488.00567892 92.68162758 -482.49516067 86.55970587 -476.85400391 80.49902344 C-475.41257786 78.93818052 -473.98934044 77.3624664 -472.5703125 75.78125 C-468.04930886 70.75627073 -463.50762524 65.94428576 -458.31640625 61.59375 C-456.30560643 59.84994435 -454.47262889 57.99744139 -452.62109375 56.0859375 C-448.68971817 52.09277212 -444.4380998 48.60532639 -440.0703125 45.1015625 C-437.89770707 43.33772876 -435.815088 41.53017178 -433.74609375 39.6484375 C-419.55888096 27.14052745 -403.41383282 16.74406219 -387.15234375 7.16796875 C-384.73256069 5.7423845 -382.33973396 4.28427204 -379.96484375 2.78515625 C-369.80294943 -3.58039168 -359.13135163 -8.70202373 -348.25585938 -13.73095703 C-345.70887539 -14.91147089 -343.17199676 -16.11103163 -340.63671875 -17.31640625 C-299.23371417 -36.75876754 -252.08297978 -51.41602218 -206.56494141 -56.77880859 C-204.47652936 -57.03381973 -202.40044644 -57.33747246 -200.3203125 -57.65234375 C-131.38790888 -67.47209709 -52.19229366 -46.58705725 0 0 Z " fill="#36383b" transform="translate(672.43359375,143.0390625)"/>
<path d="M0 0 C1.23492187 0.34804688 2.46984375 0.69609375 3.7421875 1.0546875 C18.91432158 5.70576454 32.32174489 13.55376313 45 23 C45.55751953 23.40943848 46.11503906 23.81887695 46.68945312 24.24072266 C58.57694767 33.01562351 69.1140635 43.17412301 78.66796875 54.4453125 C80.34467275 56.40228667 82.14161257 58.21594807 84 60 C82.02 61.485 82.02 61.485 80 63 C80 62.34 80 61.68 80 61 C50.66228506 65.88456267 26.39896282 78.68167255 4.9375 99.23828125 C2.96145392 101.12915863 0.93567773 102.91098912 -1.1796875 104.64453125 C-4.92759192 107.77470627 -7.89269275 111.24581838 -11 115 C-11.43086914 115.51852539 -11.86173828 116.03705078 -12.30566406 116.57128906 C-36.17631579 143.47650308 -36.17631579 143.47650308 -49 175 C-48.26587891 175.35191406 -47.53175781 175.70382812 -46.77539062 176.06640625 C-40.22301804 179.20924745 -33.67445518 182.35976895 -27.13157654 185.52232361 C-23.87388515 187.09677613 -20.61259987 188.66331378 -17.34765625 190.22265625 C-0.43472793 198.38627873 15.34479577 208.67504762 31 219 C31.63212402 219.41459473 32.26424805 219.82918945 32.91552734 220.25634766 C47.23177296 229.65033665 61.16426169 239.54159313 74.828125 249.859375 C87.07250197 259.09842071 99.42873932 268.20970827 112 277 C112.53882813 277.3801123 113.07765625 277.76022461 113.6328125 278.15185547 C148.75295568 302.79629243 188.68939605 321.48994822 230.5625 331.0625 C231.68221191 331.31926514 232.80192383 331.57603027 233.95556641 331.84057617 C253.91182642 336.31206207 273.63799265 338.23505388 294.0625 338.25 C295.31380707 338.25101212 295.31380707 338.25101212 296.59039307 338.25204468 C358.91081891 338.17250693 419.00903531 317.80598246 463.66015625 273.3515625 C464.43230469 272.57554687 465.20445312 271.79953125 466 271 C466.80824219 270.24396484 466.80824219 270.24396484 467.6328125 269.47265625 C497.38125517 241.35959917 514.44342222 199.44003313 522 160 C522.33 160 522.66 160 523 160 C523.40215957 167.51944866 521.89216878 174.42035592 520.3125 181.75 C520.03994385 183.03608154 519.7673877 184.32216309 519.48657227 185.6472168 C512.81746489 216.90779009 503.76814321 248.0646413 490 277 C489.7097998 277.61069336 489.41959961 278.22138672 489.12060547 278.85058594 C481.05654469 295.69164872 472.15068812 312.32349349 462 328 C461.62697754 328.57733887 461.25395508 329.15467773 460.86962891 329.74951172 C450.82599013 345.23191439 439.79760327 359.8163243 428 374 C427.49855469 374.60730957 426.99710938 375.21461914 426.48046875 375.84033203 C420.27275276 383.33995726 413.78812446 390.41753338 406.80688477 397.20751953 C404.17269821 399.77616762 401.65583467 402.34301742 399.328125 405.1953125 C397.37928344 407.54307801 395.52279811 409.43793168 393.1875 411.375 C390.37904759 413.76428041 387.7522438 416.22616624 385.1875 418.875 C380.45159818 423.66597045 375.25740499 427.79939324 370 432 C368.87514848 432.92568331 367.75149637 433.85282556 366.62890625 434.78125 C357.46102857 442.31129059 347.85794817 449.03319729 338.00878906 455.63867188 C335.65757592 457.23205599 333.35870125 458.89106022 331.0625 460.5625 C311.24203598 474.44705913 289.16204323 486.32627995 267 496 C266.3179248 496.30180176 265.63584961 496.60360352 264.93310547 496.91455078 C251.20887251 502.96620519 237.18977417 508.15038716 223 513 C222.07268066 513.31855957 221.14536133 513.63711914 220.18994141 513.96533203 C165.97474841 532.29835681 104.68368308 538.05592645 48 531 C47.07477539 530.89284668 46.14955078 530.78569336 45.19628906 530.67529297 C33.39376391 529.29866567 21.84939949 527.33764308 10.30126953 524.54589844 C7.89249766 523.9744987 5.47730144 523.44172924 3.05859375 522.9140625 C-34.1432407 514.65996076 -69.88701719 499.13486631 -103 480.4375 C-104.27182129 479.72327881 -104.27182129 479.72327881 -105.56933594 478.99462891 C-110.01279569 476.41742225 -113.47098668 473.78768445 -117 470 C-118.58675701 468.68700508 -120.19188606 467.39596968 -121.8125 466.125 C-128.17130743 460.98146936 -134.07239194 455.39923988 -140.00390625 449.7734375 C-143.03115108 446.90231108 -146.09827866 444.0819064 -149.19213867 441.28295898 C-155.88622691 435.20815208 -162.03573832 428.78807795 -168 422 C-168.47791992 421.46149414 -168.95583984 420.92298828 -169.44824219 420.36816406 C-181.53399443 406.72090395 -192.19085852 392.25628185 -201.86474609 376.80957031 C-202.81129275 375.3007953 -203.77294076 373.80150758 -204.73828125 372.3046875 C-226.03813455 338.43160544 -235.08946132 295.54904968 -236 256 C-236.02046387 255.2177002 -236.04092773 254.43540039 -236.06201172 253.62939453 C-237.73895007 180.88353176 -213.7213927 109.74605855 -164 56 C-163.09106898 54.98951991 -162.18358395 53.97773778 -161.27734375 52.96484375 C-156.14781579 47.25336105 -150.92630468 41.89517108 -145 37 C-144.13117188 36.24332031 -143.26234375 35.48664063 -142.3671875 34.70703125 C-102.32485827 0.27062812 -51.40261962 -14.71222847 0 0 Z " fill="#333436" transform="translate(414,383)"/>
<path d="M0 0 C6.3097464 1.15135884 11.76377482 2.98550673 17.5234375 5.78125 C18.30297287 6.15083328 19.08250824 6.52041656 19.88566589 6.90119934 C22.38700024 8.09086804 24.88127373 9.29447489 27.375 10.5 C29.10267109 11.32860295 30.83045474 12.15697123 32.55834961 12.98510742 C51.3922111 22.03751074 69.38559807 31.73148905 87 43 C87.6202002 43.39461426 88.24040039 43.78922852 88.87939453 44.19580078 C101.74848677 52.41972378 113.45457762 62.04438846 125 72 C125.71671875 72.61488281 126.4334375 73.22976562 127.171875 73.86328125 C129.13028972 75.55868573 131.06881332 77.27363615 133 79 C133.86625 79.7734375 134.7325 80.546875 135.625 81.34375 C147.58614677 92.15968059 159.04592846 103.28733887 169 116 C170.37321363 117.6473241 171.74829019 119.29309662 173.125 120.9375 C183.57660417 133.75032472 193.430093 146.94697911 201.89550781 161.16015625 C202.94716119 162.91198203 204.03138777 164.64413105 205.1171875 166.375 C253.31375417 243.52278394 277.70142105 347.88869642 258.02734375 450.40625 C248.80599697 489.8116693 228.57527085 524.56167134 200 553 C199.35160156 553.68320312 198.70320313 554.36640625 198.03515625 555.0703125 C165.29015805 589.17698389 117.91352452 607.20313383 72 614 C71.22092285 614.12004395 70.4418457 614.24008789 69.63916016 614.36376953 C43.10491991 618.2915161 14.37562611 617.348148 -12 613 C-13.53406494 612.75056641 -13.53406494 612.75056641 -15.09912109 612.49609375 C-63.94020713 604.27086797 -112.68004666 583.21538837 -152.26123047 553.29980469 C-155.06258089 551.20567528 -157.91139046 549.17804366 -160.75341797 547.13964844 C-167.48900012 542.30533932 -174.16716826 537.4031609 -180.7890625 532.4140625 C-192.05516143 523.93381507 -203.43152525 515.62645999 -215 507.5625 C-216.39569214 506.5878479 -216.39569214 506.5878479 -217.81958008 505.59350586 C-224.11304191 501.22925476 -230.52046367 497.08130752 -237 493 C-238.81907982 491.83213935 -240.6380901 490.66417037 -242.45703125 489.49609375 C-259.08484254 478.92119514 -276.20282255 469.49070402 -294.0546875 461.1796875 C-295.63624634 460.43755005 -295.63624634 460.43755005 -297.24975586 459.68041992 C-299.34486704 458.69921407 -301.4445536 457.72770832 -303.54907227 456.7668457 C-304.50096436 456.32171631 -305.45285645 455.87658691 -306.43359375 455.41796875 C-307.29009521 455.02375732 -308.14659668 454.6295459 -309.02905273 454.22338867 C-311 453 -311 453 -312 450 C-311.30664062 448.08984375 -311.30664062 448.08984375 -310.15625 445.9375 C-309.52904053 444.75099854 -309.52904053 444.75099854 -308.88916016 443.54052734 C-308.20152588 442.28296631 -308.20152588 442.28296631 -307.5 441 C-307.03513184 440.13713379 -306.57026367 439.27426758 -306.09130859 438.38525391 C-302.65687967 432.06880334 -299.06821576 425.93213931 -295 420 C-294.36239746 419.06124023 -294.36239746 419.06124023 -293.71191406 418.10351562 C-286.99534811 408.24763505 -279.91703007 398.91796679 -272 390 C-271.13246094 389.01 -270.26492188 388.02 -269.37109375 387 C-264.54091804 381.57250485 -259.58792567 376.6331542 -254 372 C-253.11828125 371.23042969 -252.2365625 370.46085937 -251.328125 369.66796875 C-232.26274191 353.25055553 -209.96390794 341.71940302 -185.125 337.3125 C-181.53598201 338.10208396 -181.12466089 338.70619615 -178.8828125 341.453125 C-174.74013177 346.35956146 -170.29127693 350.90077162 -165.75 355.4375 C-164.90953125 356.27716309 -164.0690625 357.11682617 -163.203125 357.98193359 C-157.39210806 363.73578196 -151.47354396 369.00144074 -145 374 C-143.16501484 375.53970019 -141.33171947 377.08141618 -139.5 378.625 C-111.89340005 401.03827917 -72.53609211 404.52614691 -38.16552734 401.77294922 C-33.49887279 401.2620411 -28.92144833 400.46844306 -24.33105469 399.49169922 C-21.79241222 398.95621263 -19.24550114 398.48120693 -16.6953125 398.00390625 C-3.29645427 395.36500567 8.71412194 390.91031004 21 385 C21.69706055 384.67128906 22.39412109 384.34257812 23.11230469 384.00390625 C38.60809205 376.61254602 51.70619119 365.86118211 64 354 C64.77601563 353.27554687 65.55203125 352.55109375 66.3515625 351.8046875 C88.81381965 330.29489355 104.13715022 301.14533822 114 272 C114.28069336 271.17967285 114.56138672 270.3593457 114.85058594 269.51416016 C119.31202228 256.25859695 122.02254974 242.83410797 124 229 C124.15795044 227.9318103 124.15795044 227.9318103 124.3190918 226.84204102 C129.50417589 187.2003448 121.98099419 145.50937755 104 110 C103.44699219 108.83597656 102.89398437 107.67195313 102.32421875 106.47265625 C93.37066771 87.84515352 81.0530108 71.0960077 67 56 C65.89158321 54.71197864 64.78727495 53.42040799 63.6875 52.125 C55.56249985 42.83660491 46.70323953 34.61089677 37 27 C35.90785637 26.11842219 34.81675404 25.23555319 33.7265625 24.3515625 C23.96862794 16.49177327 13.73001802 9.5035737 3.0625 2.9375 C2.051875 2.298125 1.04125 1.65875 0 1 C0 0.67 0 0.34 0 0 Z " fill="#E1061D" transform="translate(676,106)"/>
<path d="M0 0 C0.33 0 0.66 0 1 0 C1.40215957 7.51944866 -0.10783122 14.42035592 -1.6875 21.75 C-1.96005615 23.03608154 -2.2326123 24.32216309 -2.51342773 25.6472168 C-9.18253511 56.90779009 -18.23185679 88.0646413 -32 117 C-32.2902002 117.61069336 -32.58040039 118.22138672 -32.87939453 118.85058594 C-40.94345531 135.69164872 -49.84931188 152.32349349 -60 168 C-60.37302246 168.57733887 -60.74604492 169.15467773 -61.13037109 169.74951172 C-71.17400987 185.23191439 -82.20239673 199.8163243 -94 214 C-94.50144531 214.60730957 -95.00289062 215.21461914 -95.51953125 215.84033203 C-101.72724724 223.33995726 -108.21187554 230.41753338 -115.19311523 237.20751953 C-117.82730179 239.77616762 -120.34416533 242.34301742 -122.671875 245.1953125 C-124.62071656 247.54307801 -126.47720189 249.43793168 -128.8125 251.375 C-131.71234647 253.83877933 -134.41324378 256.3935963 -137.0625 259.125 C-141.40037794 263.49676761 -145.35292331 267.26470092 -151.375 268.9375 C-154.69961299 269.91195553 -156.27994221 270.76049643 -159.015625 272.71875 C-164.21266307 276.26122301 -169.68160394 278.91590143 -175.375 281.5625 C-176.33921875 282.01818359 -177.3034375 282.47386719 -178.296875 282.94335938 C-180.24092669 283.85935692 -182.18797287 284.76902569 -184.13793945 285.67236328 C-185.98544044 286.52937176 -187.82815314 287.39681547 -189.66479492 288.27685547 C-197.10319455 291.78477213 -204.75150003 294.45065979 -212.5625 297 C-213.22828064 297.21821411 -213.89406128 297.43642822 -214.58001709 297.66125488 C-217.89648699 298.74667389 -221.21558911 299.82336444 -224.53857422 300.88867188 C-226.54775978 301.5337426 -228.55545711 302.18356263 -230.55908203 302.84570312 C-303.26932416 326.75500189 -390.14488597 317.02150582 -458.08056641 283.47900391 C-478.30626681 273.1252576 -497.31759043 261.27219883 -515 247 C-515.59055176 246.5265918 -516.18110352 246.05318359 -516.78955078 245.56542969 C-531.94703914 233.31337843 -546.34626851 219.42039909 -557.81005859 203.62109375 C-558.98201342 202.02450367 -560.20371982 200.4648211 -561.42578125 198.90625 C-586.22003406 166.75932114 -598.96974881 124.16153423 -594.12695312 83.78857422 C-591.06917368 60.66114654 -585.10439303 33.65658954 -572 14 C-570.5459375 14.72703125 -570.5459375 14.72703125 -569.0625 15.46875 C-568.4233667 15.78827637 -567.7842334 16.10780273 -567.12573242 16.43701172 C-565.6856613 17.15712998 -564.24572391 17.87751573 -562.8059082 18.59814453 C-559.22124897 20.39183241 -555.63521626 22.18248945 -552.04296875 23.9609375 C-537.02869198 31.40433513 -522.10644784 38.92440619 -508 48 C-507.35353516 48.41362793 -506.70707031 48.82725586 -506.04101562 49.25341797 C-501.00898922 52.47433852 -495.9983935 55.72715913 -491 59 C-490.35772461 59.42039551 -489.71544922 59.84079102 -489.05371094 60.27392578 C-474.74851495 69.66287542 -460.8261247 79.5488525 -447.171875 89.859375 C-434.92749803 99.09842071 -422.57126068 108.20970827 -410 117 C-409.46117187 117.3801123 -408.92234375 117.76022461 -408.3671875 118.15185547 C-373.24704432 142.79629243 -333.31060395 161.48994822 -291.4375 171.0625 C-290.31778809 171.31926514 -289.19807617 171.57603027 -288.04443359 171.84057617 C-268.08817358 176.31206207 -248.36200735 178.23505388 -227.9375 178.25 C-226.68619293 178.25101212 -226.68619293 178.25101212 -225.40960693 178.25204468 C-163.08918109 178.17250693 -102.99096469 157.80598246 -58.33984375 113.3515625 C-57.56769531 112.57554687 -56.79554688 111.79953125 -56 111 C-55.46117187 110.49597656 -54.92234375 109.99195313 -54.3671875 109.47265625 C-24.61874483 81.35959917 -7.55657778 39.44003313 0 0 Z " fill="#5a5a5a" transform="translate(936,543)"/>
<path d="M0 0 C3.2386692 2.93542128 6.41215133 5.93529644 9.56640625 8.9609375 C10.39011719 9.74339844 11.21382812 10.52585937 12.0625 11.33203125 C45.13078462 43.48334438 65.79608841 88.86854258 66.96923828 134.90307617 C67.27300995 164.98288957 59.64880203 192.01740117 44.56640625 217.9609375 C43.97085937 218.99347656 43.3753125 220.02601563 42.76171875 221.08984375 C35.22843545 233.47110123 25.59704845 244.55461581 15.56640625 254.9609375 C14.98310547 255.56615234 14.39980469 256.17136719 13.79882812 256.79492188 C6.11561873 264.71848193 -1.65056922 272.24897184 -10.43359375 278.9609375 C-11.11454102 279.49122559 -11.79548828 280.02151367 -12.49707031 280.56787109 C-46.53710233 307.04587295 -84.43824597 327.08756724 -124.43359375 342.9609375 C-125.30314697 343.32912598 -126.1727002 343.69731445 -127.06860352 344.07666016 C-130.12433009 345.21920601 -131.36990357 345.09427251 -134.43359375 343.9609375 C-136.75052011 342.23119722 -138.85675126 340.51179175 -140.99609375 338.5859375 C-141.61250732 338.04283936 -142.2289209 337.49974121 -142.86401367 336.94018555 C-144.72951349 335.2902034 -146.58218594 333.62669868 -148.43359375 331.9609375 C-149.91085937 330.65189453 -149.91085937 330.65189453 -151.41796875 329.31640625 C-160.42947224 321.21352121 -168.91648812 312.576691 -177.43359375 303.9609375 C-176.43359375 300.9609375 -176.43359375 300.9609375 -174.64624023 299.92114258 C-173.48717163 299.45550903 -173.48717163 299.45550903 -172.3046875 298.98046875 C-171.44246582 298.62525146 -170.58024414 298.27003418 -169.69189453 297.90405273 C-168.76103027 297.53094971 -167.83016602 297.15784668 -166.87109375 296.7734375 C-158.14913605 293.15836697 -149.66865755 289.28863281 -141.296875 284.92724609 C-139.45392924 283.97148361 -137.6011646 283.03743508 -135.74609375 282.10546875 C-116.64309717 272.37427879 -99.63072524 259.41620414 -83.40625 245.50390625 C-81.34743914 243.7426896 -79.27807092 242.01006551 -77.18359375 240.29296875 C-74.50947687 238.02528725 -72.57392949 235.72266104 -70.43359375 232.9609375 C-68.77523948 231.28599969 -67.1076295 229.62020235 -65.43359375 227.9609375 C-43.93557424 206.03988004 -21.54289661 174.35941248 -20.16015625 142.62109375 C-20.22872944 137.65161529 -21.69286113 133.84241942 -23.80859375 129.3984375 C-24.16800049 128.62322754 -24.52740723 127.84801758 -24.89770508 127.04931641 C-37.53634149 100.50682822 -58.45479013 77.00240359 -81.43359375 58.9609375 C-82.408125 58.18105469 -83.38265625 57.40117187 -84.38671875 56.59765625 C-141.42575149 11.66866941 -213.05985598 -16.33417794 -285.87109375 -16.2265625 C-286.75476624 -16.22529358 -287.63843872 -16.22402466 -288.54888916 -16.22271729 C-311.76782816 -16.1592446 -332.87530314 -13.80264903 -355.43359375 -8.0390625 C-356.76673783 -7.70497305 -358.09999717 -7.37134106 -359.43359375 -7.0390625 C-356.87423274 -10.02599908 -354.03402163 -11.34660703 -350.484375 -12.97265625 C-349.88821884 -13.24652664 -349.29206268 -13.52039703 -348.67784119 -13.80256653 C-346.70481327 -14.70357443 -344.7263855 -15.59164067 -342.74609375 -16.4765625 C-342.05954712 -16.78452759 -341.37300049 -17.09249268 -340.66564941 -17.40979004 C-298.59108704 -36.21711214 -252.49486275 -51.36749547 -206.56494141 -56.77880859 C-204.47652936 -57.03381973 -202.40044644 -57.33747246 -200.3203125 -57.65234375 C-131.38790888 -67.47209709 -52.19229366 -46.58705725 0 0 Z " fill="#7c7c7c" transform="translate(672.43359375,143.0390625)"/>
<path d="M0 0 C1.23492187 0.34804688 2.46984375 0.69609375 3.7421875 1.0546875 C18.98170168 5.72642018 32.18749043 13.66698383 45 23 C46.43721064 23.97959133 47.87465174 24.9588448 49.3125 25.9375 C50.199375 26.618125 51.08625 27.29875 52 28 C52 28.66 52 29.32 52 30 C50.98353394 30.09704224 50.98353394 30.09704224 49.9465332 30.19604492 C-3.98409076 35.49316801 -50.44736797 57.4698248 -89.24707031 95.29394531 C-90.8376542 96.84199548 -92.44312051 98.37230812 -94.0546875 99.8984375 C-100.57715944 106.19918235 -106.19255014 112.95330284 -111.62939453 120.18505859 C-112.97456405 121.96631798 -114.34269526 123.72776088 -115.71484375 125.48828125 C-139.26836072 156.13449852 -155.25575213 194.49836583 -161.125 232.625 C-161.29386719 233.67945313 -161.46273437 234.73390625 -161.63671875 235.8203125 C-163.46008382 247.42093439 -164.23855204 258.75927137 -164.25 270.5 C-164.25100708 271.22109955 -164.25201416 271.9421991 -164.25305176 272.68515015 C-164.18508856 345.25885509 -133.42483133 409.38334657 -82.8125 460.3125 C-78.35977584 464.73721079 -73.82701363 468.98689017 -69 473 C-68.4858252 473.43860352 -67.97165039 473.87720703 -67.44189453 474.32910156 C-44.98056513 493.46352276 -18.16437409 511.87007849 10.1875 520.8125 C10.85330078 521.02841797 11.51910156 521.24433594 12.20507812 521.46679688 C13.80152926 521.98363357 15.40048308 522.4927308 17 523 C16.67 523.66 16.34 524.32 16 525 C-26.08471084 520.03879425 -67.76801725 500.69481175 -104.25 479.8125 C-104.98742432 479.39162109 -105.72484863 478.97074219 -106.48461914 478.53710938 C-110.57321671 476.11117866 -113.70586907 473.47189179 -117 470 C-118.58675701 468.68700508 -120.19188606 467.39596968 -121.8125 466.125 C-128.17130743 460.98146936 -134.07239194 455.39923988 -140.00390625 449.7734375 C-143.03115108 446.90231108 -146.09827866 444.0819064 -149.19213867 441.28295898 C-155.88622691 435.20815208 -162.03573832 428.78807795 -168 422 C-168.47791992 421.46149414 -168.95583984 420.92298828 -169.44824219 420.36816406 C-181.53399443 406.72090395 -192.19085852 392.25628185 -201.86474609 376.80957031 C-202.81129275 375.3007953 -203.77294076 373.80150758 -204.73828125 372.3046875 C-226.03813455 338.43160544 -235.08946132 295.54904968 -236 256 C-236.02046387 255.2177002 -236.04092773 254.43540039 -236.06201172 253.62939453 C-237.73895007 180.88353176 -213.7213927 109.74605855 -164 56 C-163.09106898 54.98951991 -162.18358395 53.97773778 -161.27734375 52.96484375 C-156.14781579 47.25336105 -150.92630468 41.89517108 -145 37 C-144.13117188 36.24332031 -143.26234375 35.48664063 -142.3671875 34.70703125 C-102.32485827 0.27062812 -51.40261962 -14.71222847 0 0 Z " fill="#575757" transform="translate(414,383)"/>
<path d="M0 0 C0.33 0 0.66 0 1 0 C6.14728987 67.77036832 -0.03155055 137.04289813 -44.92578125 191.58984375 C-50.39685719 197.94700732 -56.05563703 204.08412439 -62 210 C-62.64839844 210.68320312 -63.29679687 211.36640625 -63.96484375 212.0703125 C-96.70984195 246.17698389 -144.08647548 264.20313383 -190 271 C-190.77907715 271.12004395 -191.5581543 271.24008789 -192.36083984 271.36376953 C-218.89508009 275.2915161 -247.62437389 274.348148 -274 270 C-275.02270996 269.83371094 -276.04541992 269.66742187 -277.09912109 269.49609375 C-325.94020713 261.27086797 -374.68004666 240.21538837 -414.26123047 210.29980469 C-417.06258089 208.20567528 -419.91139046 206.17804366 -422.75341797 204.13964844 C-429.48900012 199.30533932 -436.16716826 194.4031609 -442.7890625 189.4140625 C-454.05516143 180.93381507 -465.43152525 172.62645999 -477 164.5625 C-477.93046143 163.91273193 -478.86092285 163.26296387 -479.81958008 162.59350586 C-486.11304191 158.22925476 -492.52046367 154.08130752 -499 150 C-500.81907982 148.83213935 -502.6380901 147.66417037 -504.45703125 146.49609375 C-521.08484254 135.92119514 -538.20282255 126.49070402 -556.0546875 118.1796875 C-557.10906006 117.6849292 -558.16343262 117.1901709 -559.24975586 116.68041992 C-561.34486704 115.69921407 -563.4445536 114.72770832 -565.54907227 113.7668457 C-566.50096436 113.32171631 -567.45285645 112.87658691 -568.43359375 112.41796875 C-569.71834595 111.82665161 -569.71834595 111.82665161 -571.02905273 111.22338867 C-573 110 -573 110 -574 107 C-573.30664062 105.08984375 -573.30664062 105.08984375 -572.15625 102.9375 C-571.52904053 101.75099854 -571.52904053 101.75099854 -570.88916016 100.54052734 C-570.4307373 99.70215332 -569.97231445 98.8637793 -569.5 98 C-568.80269775 96.70570068 -568.80269775 96.70570068 -568.09130859 95.38525391 C-564.65717764 89.06935135 -561.07281748 82.92847988 -557 77 C-556.54834473 76.34225586 -556.09668945 75.68451172 -555.63134766 75.00683594 C-554.07478373 72.74884195 -552.50851922 70.49795854 -550.9375 68.25 C-550.1952417 67.18531494 -550.1952417 67.18531494 -549.43798828 66.09912109 C-547.98562243 64.04501268 -546.49477545 62.02336128 -545 60 C-544.52965332 59.30455078 -544.05930664 58.60910156 -543.57470703 57.89257812 C-542.15906575 55.962984 -540.91087271 54.44167232 -539 53 C-532.22184229 52.61984936 -526.20389836 55.66714522 -520.0625 58.3125 C-519.01618408 58.75835449 -517.96986816 59.20420898 -516.8918457 59.66357422 C-475.49327968 77.49708756 -438.32291105 101.27176422 -403.5703125 129.89453125 C-401.10695667 131.91238656 -398.62046973 133.89707946 -396.125 135.875 C-392.88071733 138.45313686 -389.71594253 141.10043233 -386.58666992 143.81689453 C-372.78932853 155.73538577 -357.78214171 165.90388877 -342 175 C-341.31647461 175.39670898 -340.63294922 175.79341797 -339.92871094 176.20214844 C-321.16488702 186.96946058 -300.96393615 193.91913625 -280 199 C-279.32114746 199.16725586 -278.64229492 199.33451172 -277.94287109 199.50683594 C-213.19370851 215.24154229 -139.84260683 200.11548191 -83 167 C-77.10684699 163.30439154 -71.51480101 159.23378583 -66 155 C-64.51693359 153.88044922 -64.51693359 153.88044922 -63.00390625 152.73828125 C-49.29700525 141.97567829 -38.44695594 129.58607041 -29 115 C-28.33355469 113.98421875 -27.66710937 112.9684375 -26.98046875 111.921875 C-8.58951536 82.19744468 -2.83515319 46.23210148 -1.34106445 11.90966797 C-1.15737883 7.86858424 -0.75388927 4.9750525 0 0 Z " fill="#C50118" transform="translate(938,449)"/>
<path d="M0 0 C6.3097464 1.15135884 11.76377482 2.98550673 17.5234375 5.78125 C18.30297287 6.15083328 19.08250824 6.52041656 19.88566589 6.90119934 C22.38700024 8.09086804 24.88127373 9.29447489 27.375 10.5 C29.10267109 11.32860295 30.83045474 12.15697123 32.55834961 12.98510742 C51.3922111 22.03751074 69.38559807 31.73148905 87 43 C87.6202002 43.39461426 88.24040039 43.78922852 88.87939453 44.19580078 C101.74848677 52.41972378 113.45457762 62.04438846 125 72 C125.71671875 72.61488281 126.4334375 73.22976562 127.171875 73.86328125 C133.23299888 79.11041122 139.13430234 84.53638645 145 90 C146.19109375 91.10794922 146.19109375 91.10794922 147.40625 92.23828125 C150.94888596 95.64211991 153.66799241 98.74365567 155.88574219 103.12719727 C157.14263898 105.23974224 158.60008276 106.88866146 160.26171875 108.69921875 C163.80464243 112.68826803 166.82720363 116.85554806 169.75 121.3125 C170.26022705 122.0866626 170.7704541 122.8608252 171.29614258 123.65844727 C180.76067488 138.17423389 188.98399297 153.15533975 196 169 C196.28713867 169.64356445 196.57427734 170.28712891 196.87011719 170.95019531 C201.71659755 181.95854577 205.07195421 193.35493538 208 205 C208.21462891 205.81210937 208.42925781 206.62421875 208.65039062 207.4609375 C215.70184064 235.12948422 214.8730313 269.34974425 208 297 C207.81808105 297.78117187 207.63616211 298.56234375 207.44873047 299.3671875 C199.70590851 332.24823302 183.83918217 361.84395417 161.078125 386.6953125 C159.35388746 388.60753082 157.73451794 390.55522763 156.125 392.5625 C152.0187825 397.37746189 146.95472189 401.10517996 142 405 C140.53046875 406.21042969 140.53046875 406.21042969 139.03125 407.4453125 C119.09220514 423.50732086 95.63965401 432.8391017 71 439 C70.08879395 439.22880859 69.17758789 439.45761719 68.23876953 439.69335938 C41.92559254 445.94352018 10.42704508 445.5913948 -16 440 C-16.80985352 439.83371094 -17.61970703 439.66742187 -18.45410156 439.49609375 C-55.60926765 431.63102527 -88.94110014 414.38854642 -120 393 C-118 392 -118 392 -114.6328125 393.07421875 C-113.92729248 393.32800293 -113.22177246 393.58178711 -112.49487305 393.84326172 C-85.14967667 403.5846534 -52.7220805 405.53274094 -24.33105469 399.49169922 C-21.79241222 398.95621263 -19.24550114 398.48120693 -16.6953125 398.00390625 C-3.29645427 395.36500567 8.71412194 390.91031004 21 385 C21.69706055 384.67128906 22.39412109 384.34257812 23.11230469 384.00390625 C38.60809205 376.61254602 51.70619119 365.86118211 64 354 C64.77601563 353.27554687 65.55203125 352.55109375 66.3515625 351.8046875 C88.81381965 330.29489355 104.13715022 301.14533822 114 272 C114.28069336 271.17967285 114.56138672 270.3593457 114.85058594 269.51416016 C119.31202228 256.25859695 122.02254974 242.83410797 124 229 C124.10530029 228.28787354 124.21060059 227.57574707 124.3190918 226.84204102 C129.50417589 187.2003448 121.98099419 145.50937755 104 110 C103.44699219 108.83597656 102.89398437 107.67195313 102.32421875 106.47265625 C93.37066771 87.84515352 81.0530108 71.0960077 67 56 C65.89158321 54.71197864 64.78727495 53.42040799 63.6875 52.125 C55.56249985 42.83660491 46.70323953 34.61089677 37 27 C35.90785637 26.11842219 34.81675404 25.23555319 33.7265625 24.3515625 C23.96862794 16.49177327 13.73001802 9.5035737 3.0625 2.9375 C2.051875 2.298125 1.04125 1.65875 0 1 C0 0.67 0 0.34 0 0 Z " fill="#F2930C" transform="translate(676,106)"/>
<path d="M0 0 C0.84530273 0.11827148 1.69060547 0.23654297 2.56152344 0.35839844 C40.55029403 5.73455502 76.04438139 19.59701924 110 37 C110.88252441 37.4522998 111.76504883 37.90459961 112.67431641 38.37060547 C147.69541101 56.5594157 181.41160246 82.1418507 205 114 C205.43296387 114.57218262 205.86592773 115.14436523 206.31201172 115.73388672 C227 143.08894769 227 143.08894769 227 156 C185.31079859 166.55033844 136.28798396 157.29272043 98 140 C96.86933105 139.49581543 96.86933105 139.49581543 95.71582031 138.98144531 C82.09249482 132.81805614 69.49873075 124.58141426 57.01953125 116.3984375 C23.60654978 94.6405354 -14.47780115 81.52480832 -54 77 C-55.25296875 76.8455542 -55.25296875 76.8455542 -56.53125 76.68798828 C-92.29877778 72.32054131 -127.5048246 75.88226366 -162 86 C-162.80743652 86.23412598 -163.61487305 86.46825195 -164.44677734 86.70947266 C-196.23065593 96.19857264 -226.07588968 115.2720952 -250 138 C-251.30658357 139.131866 -252.61877662 140.25730152 -253.9375 141.375 C-264.41702999 150.4960724 -273.74738732 160.72425022 -282.25 171.6875 C-282.67490723 172.23462646 -283.09981445 172.78175293 -283.53759766 173.34545898 C-285.41455661 175.7967002 -287.12636518 178.2187771 -288.671875 180.89453125 C-289.11015625 181.58933594 -289.5484375 182.28414062 -290 183 C-290.66 183 -291.32 183 -292 183 C-290.48665849 177.52066005 -287.86243066 173.14550446 -284.875 168.375 C-284.3792749 167.57521729 -283.8835498 166.77543457 -283.37280273 165.95141602 C-272.829292 149.02006909 -261.38068355 132.639837 -249 117 C-248.26265625 116.06800781 -247.5253125 115.13601562 -246.765625 114.17578125 C-241.57208517 107.72069008 -236.06156692 101.59876837 -230.42041016 95.53808594 C-228.97898411 93.97724302 -227.55574669 92.4015289 -226.13671875 90.8203125 C-221.61571511 85.79533323 -217.07403149 80.98334826 -211.8828125 76.6328125 C-209.87201268 74.88900685 -208.03903514 73.03650389 -206.1875 71.125 C-202.25612442 67.13183462 -198.00450605 63.64438889 -193.63671875 60.140625 C-191.46411332 58.37679126 -189.38149425 56.56923428 -187.3125 54.6875 C-172.5793618 41.69828428 -155.77616314 31.0779222 -138.90136719 21.13085938 C-136.93712384 19.9626037 -134.98694569 18.77343869 -133.0390625 17.578125 C-121.89873572 10.75272325 -111.72656397 6.37503487 -98.98730469 3.46142578 C-97.20737257 3.04814916 -95.4350645 2.60235245 -93.6640625 2.15234375 C-64.48458905 -4.87757782 -29.61012921 -4.55247811 0 0 Z " fill="#42444b" transform="translate(426,128)"/>
<path d="M0 0 C44.63619183 20.95960312 44.63619183 20.95960312 65 34 C65.97404785 34.62261719 65.97404785 34.62261719 66.96777344 35.2578125 C71.99689418 38.47720285 77.00434536 41.72895247 82 45 C82.64227539 45.42039551 83.28455078 45.84079102 83.94628906 46.27392578 C98.25148505 55.66287542 112.1738753 65.5488525 125.828125 75.859375 C138.07250197 85.09842071 150.42873932 94.20970827 163 103 C163.53882813 103.3801123 164.07765625 103.76022461 164.6328125 104.15185547 C199.75295568 128.79629243 239.68939605 147.48994822 281.5625 157.0625 C282.68221191 157.31926514 283.80192383 157.57603027 284.95556641 157.84057617 C304.91182642 162.31206207 324.63799265 164.23505388 345.0625 164.25 C346.31380707 164.25101212 346.31380707 164.25101212 347.59039307 164.25204468 C400.87846644 164.18403466 456.67989402 149.75216102 498.01953125 114.55859375 C499.93813311 113.04868814 501.78105841 112.0022635 504 111 C503.63911105 116.11892488 500.80107429 118.821647 497.375 122.3125 C496.26732495 123.47179297 495.16054852 124.63194524 494.0546875 125.79296875 C493.52198242 126.34774902 492.98927734 126.9025293 492.44042969 127.47412109 C490.71863646 129.2980546 489.1043159 131.19742642 487.5 133.125 C474.19293428 148.40584102 457.07153466 161.25001341 440 172 C438.93523437 172.68449219 437.87046875 173.36898437 436.7734375 174.07421875 C391.29453694 202.79476513 339.73239183 215.32669979 286.3125 215.4375 C285.36342773 215.44349213 284.41435547 215.44948425 283.43652344 215.45565796 C234.89034551 215.66007066 184.87662137 201.55950406 142.04101562 179.06542969 C139.83337145 177.9130183 137.61285737 176.78806653 135.390625 175.6640625 C125.13416964 170.43051742 115.41723434 164.66353571 105.86035156 158.24462891 C104.19565544 157.13089914 102.51667676 156.03858679 100.8359375 154.94921875 C87.48521361 146.2586532 74.98950929 136.47083811 63 126 C62.19820313 125.31035156 61.39640625 124.62070312 60.5703125 123.91015625 C48.43516125 113.26636197 36.86323468 101.78908228 27 89 C26.13788689 87.93679431 25.27315369 86.87570949 24.40625 85.81640625 C11.29962948 69.69447318 -9 44.28035745 -9 22.6875 C-7.5203081 17.23113611 -5.27900876 12.16399673 -3 7 C-1.99558661 4.66853633 -0.99789789 2.33426407 0 0 Z " fill="#4f5057" transform="translate(363,557)"/>
<path d="M0 0 C0.33 0 0.66 0 1 0 C2.162856 15.31042195 3.19609381 30.5749815 3.1875 45.9375 C3.1884668 47.58552612 3.1884668 47.58552612 3.18945312 49.2668457 C3.15063347 54.93231034 2.84288047 60.39653067 2 66 C1.67 66 1.34 66 1 66 C1 54.78 1 43.56 1 32 C-0.485 32.495 -0.485 32.495 -2 33 C-1.86061293 28.62476975 -1.71235541 24.24988322 -1.5625 19.875 C-1.52318359 18.6375 -1.48386719 17.4 -1.44335938 16.125 C-1.40146484 14.92617188 -1.35957031 13.72734375 -1.31640625 12.4921875 C-1.27974854 11.39245605 -1.24309082 10.29272461 -1.20532227 9.15966797 C-1.00316521 6.04870884 -0.56710106 3.06355662 0 0 Z " fill="#B60218" transform="translate(938,449)"/>
<path d="M0 0 C6.30593777 4.96424888 11.02650015 10.73123141 16 17 C17.60107238 18.96086393 19.20515969 20.91927066 20.8125 22.875 C22.21071596 24.58138378 23.60666193 26.28963089 25 28 C25.75152344 28.85207031 26.50304687 29.70414063 27.27734375 30.58203125 C29 33 29 33 28.75 36.8125 C28.5025 37.864375 28.255 38.91625 28 40 C24.78150614 36.95912975 22.70201264 33.39373605 20.4375 29.625 C15.40675973 21.4088402 9.89603127 13.67769331 3.59619141 6.37207031 C0 2.19315685 0 2.19315685 0 0 Z " fill="#DB0918" transform="translate(829,205)"/>
<path d="M0 0 C0.66 0 1.32 0 2 0 C2.1701108 4.87033776 2.33034751 9.74087442 2.48217773 14.61181641 C2.53492753 16.2622918 2.59018666 17.91268928 2.64819336 19.56298828 C3.00606026 29.80109343 2.99667172 39.78801217 2 50 C1.67 50 1.34 50 1 50 C0.0126507 44.26380803 -0.13082936 38.72328342 -0.09765625 32.91015625 C-0.0962413 31.96563095 -0.09482635 31.02110565 -0.09336853 30.04795837 C-0.0878036 27.05277237 -0.07525767 24.05766313 -0.0625 21.0625 C-0.05748046 19.02278754 -0.05291835 16.98307391 -0.04882812 14.94335938 C-0.03784567 9.96221034 -0.0206054 4.98111815 0 0 Z " fill="#36383b" transform="translate(87,470)"/>
<path d="M0 0 C0.33 0 0.66 0 1 0 C1.3244122 6.93743018 0.10872746 13.12782563 -1.4375 19.875 C-1.66759766 20.91914062 -1.89769531 21.96328125 -2.13476562 23.0390625 C-3.84379574 30.68759148 -3.84379574 30.68759148 -5 33 C-5.66 33 -6.32 33 -7 33 C-7.33 36.63 -7.66 40.26 -8 44 C-9.32 44 -10.64 44 -12 44 C-11.81824219 43.46850342 -11.63648438 42.93700684 -11.44921875 42.3894043 C-9.4817886 36.57098185 -7.68899226 30.71741372 -6 24.8125 C-5.60917236 23.44798706 -5.60917236 23.44798706 -5.21044922 22.0559082 C-3.15155963 14.7596619 -1.42706008 7.44825217 0 0 Z " fill="#484849" transform="translate(936,543)"/>
<path d="M0 0 C0 4.05571655 -1.62868633 5.84201149 -3.875 9.1875 C-4.95394531 10.81751953 -4.95394531 10.81751953 -6.0546875 12.48046875 C-7.01761719 13.72763672 -7.01761719 13.72763672 -8 15 C-8.66 15 -9.32 15 -10 15 C-8.44803695 9.69745958 -6.5956597 3.65833814 -1.75 0.5625 C-1.1725 0.376875 -0.595 0.19125 0 0 Z " fill="#555555" transform="translate(144,296)"/>
<path d="M0 0 C5.24972347 4.10037573 9.20962911 8.52964787 13 14 C12.01 14 11.02 14 10 14 C8.1380628 12.08235129 6.47754723 10.20096474 4.8125 8.125 C4.34908203 7.56941406 3.88566406 7.01382813 3.40820312 6.44140625 C0 2.27526694 0 2.27526694 0 0 Z " fill="#C80B0D" transform="translate(829,205)"/>
<path d="M0 0 C9.59453303 1.74259681 9.59453303 1.74259681 13 5 C12.01 6.485 12.01 6.485 11 8 C9.16399255 6.85845641 7.33125195 5.71165684 5.5 4.5625 C4.4790625 3.92441406 3.458125 3.28632812 2.40625 2.62890625 C1.6121875 2.09136719 0.818125 1.55382812 0 1 C0 0.67 0 0.34 0 0 Z " fill="#DE970B" transform="translate(676,106)"/>
<path d="M0 0 C0.33 0 0.66 0 1 0 C1.19392201 5.52677733 0.7479503 9.75614911 -1 15 C-1.66 14.67 -2.32 14.34 -3 14 C-2.69249629 11.85344499 -2.3788634 9.70776715 -2.0625 7.5625 C-1.88847656 6.36753906 -1.71445312 5.17257812 -1.53515625 3.94140625 C-1 1 -1 1 0 0 Z " fill="#CD010A" transform="translate(935,539)"/>
<path d="M0 0 C3.87729434 0.94954147 6.23979642 1.92729642 9.0625 4.75 C4.00718132 3.97225866 -0.95466284 2.89051606 -5.9375 1.75 C-2.9375 -0.25 -2.9375 -0.25 0 0 Z " fill="#B4031B" transform="translate(633.9375,709.25)"/>
<path d="M0 0 C4.5076467 0.53031138 7.41954788 2.25221116 11 5 C11 5.66 11 6.32 11 7 C7.87691494 6.39196574 5.80748338 5.37985958 3.25 3.5 C2.63640625 3.0565625 2.0228125 2.613125 1.390625 2.15625 C0.93171875 1.7746875 0.4728125 1.393125 0 1 C0 0.67 0 0.34 0 0 Z " fill="#CE010B" transform="translate(452,606)"/>
<path d="M0 0 C0.33 0.66 0.66 1.32 1 2 C0.328125 3.953125 0.328125 3.953125 -0.75 6.25 C-1.12125 7.04792969 -1.4925 7.84585937 -1.875 8.66796875 C-3.22195704 11.46009845 -4.58537045 14.24147237 -6 17 C-7.23306978 14.07323092 -7.01493635 13.03773655 -5.8203125 10.01953125 C-5.26085937 8.96121094 -4.70140625 7.90289062 -4.125 6.8125 C-3.57070312 5.74644531 -3.01640625 4.68039062 -2.4453125 3.58203125 C-1 1 -1 1 0 0 Z " fill="#2d3138" transform="translate(130,318)"/>
<path d="M0 0 C2.8125 1.5 2.8125 1.5 5 3 C1.72814447 4.07310858 -0.42947592 3.89263102 -3.75 3.0625 C-4.54921875 2.86785156 -5.3484375 2.67320312 -6.171875 2.47265625 C-6.77515625 2.31667969 -7.3784375 2.16070313 -8 2 C-4.71662309 -0.18891794 -3.80441099 -0.45290607 0 0 Z " fill="#B6051A" transform="translate(652,713)"/>
<path d="M0 0 C1.85546875 0.2578125 1.85546875 0.2578125 4 1 C5.30078125 2.7421875 5.30078125 2.7421875 6.3125 4.875 C6.83263672 5.92300781 6.83263672 5.92300781 7.36328125 6.9921875 C8 9 8 9 7 12 C5.82767315 10.3790787 4.6622923 8.75313167 3.5 7.125 C2.8503125 6.22007812 2.200625 5.31515625 1.53125 4.3828125 C0 2 0 2 0 0 Z " fill="#434344" transform="translate(197,736)"/>
<path d="M0 0 C1.12894876 0.93274109 2.25300876 1.87140122 3.375 2.8125 C4.00148438 3.33457031 4.62796875 3.85664063 5.2734375 4.39453125 C7 6 7 6 9 9 C6 9 6 9 4.39453125 7.5390625 C3.61142578 6.59160156 3.61142578 6.59160156 2.8125 5.625 C2.28269531 4.99851562 1.75289063 4.37203125 1.20703125 3.7265625 C0 2 0 2 0 0 Z " fill="#CC0924" transform="translate(499,451)"/>
<path d="M0 0 C0.598125 0.309375 1.19625 0.61875 1.8125 0.9375 C4.08956772 2.10209704 4.08956772 2.10209704 7 3 C7.33 3.99 7.66 4.98 8 6 C3.68607774 5.5206753 1.83430453 4.2542015 -1 1 C-0.67 0.67 -0.34 0.34 0 0 Z " fill="#CF010B" transform="translate(543,669)"/>
<path d="M0 0 C0.66 0.33 1.32 0.66 2 1 C1.25 8.75 1.25 8.75 -1 11 C-1.0270043 9.54176788 -1.04639787 8.08339325 -1.0625 6.625 C-1.07410156 5.81289063 -1.08570313 5.00078125 -1.09765625 4.1640625 C-1 2 -1 2 0 0 Z " fill="#D0010A" transform="translate(930,559)"/>
<path d="M0 0 C3.81684226 1.55500981 6.19195732 4.03595495 9 7 C8.67 7.66 8.34 8.32 8 9 C5.03 6.69 2.06 4.38 -1 2 C-0.67 1.34 -0.34 0.68 0 0 Z " fill="#E3020F" transform="translate(510,463)"/>
<path d="M0 0 C0.66 0.33 1.32 0.66 2 1 C-0.31 3.31 -2.62 5.62 -5 8 C-5.99 7.67 -6.98 7.34 -8 7 C-7.236875 6.401875 -6.47375 5.80375 -5.6875 5.1875 C-3.6516425 3.53040668 -1.8021721 1.89702326 0 0 Z " fill="#D3020A" transform="translate(875,657)"/>
<path d="M0 0 C0.66 0.33 1.32 0.66 2 1 C1.01 2.485 1.01 2.485 0 4 C-0.66 4 -1.32 4 -2 4 C-2.33 5.65 -2.66 7.3 -3 9 C-3.66 9 -4.32 9 -5 9 C-3.90931332 5.22454612 -3.0916909 2.52956528 0 0 Z " fill="#504f4f" transform="translate(919,600)"/>
<path d="M0 0 C0.66 0 1.32 0 2 0 C1.44271087 3.34373475 0.64826111 6.03312999 -1 9 C-1.66 9 -2.32 9 -3 9 C-1.125 2.25 -1.125 2.25 0 0 Z " fill="#CD010B" transform="translate(916,598)"/>
<path d="M0 0 C4.75 0.75 4.75 0.75 7 3 C6.34 3 5.68 3 5 3 C5 3.66 5 4.32 5 5 C2.525 4.01 2.525 4.01 0 3 C0 2.01 0 1.02 0 0 Z " fill="#EB8F04" transform="translate(568,502)"/>
<path d="M0 0 C1.4800841 0.11362262 2.95910074 0.24122908 4.4375 0.375 C5.26121094 0.44460938 6.08492187 0.51421875 6.93359375 0.5859375 C7.95646484 0.79089844 7.95646484 0.79089844 9 1 C9.33 1.66 9.66 2.32 10 3 C8.5199159 2.88637738 7.04089926 2.75877092 5.5625 2.625 C4.73878906 2.55539062 3.91507813 2.48578125 3.06640625 2.4140625 C2.38449219 2.27742187 1.70257812 2.14078125 1 2 C0.67 1.34 0.34 0.68 0 0 Z " fill="#CD0109" transform="translate(604,701)"/>
<path d="M0 0 C0.33 0.99 0.66 1.98 1 3 C-0.40445835 5.2636564 -2.1967913 7.0208685 -4 9 C-4.99 8.67 -5.98 8.34 -7 8 C-4.69 5.36 -2.38 2.72 0 0 Z " fill="#59595a" transform="translate(895,637)"/>
<path d="M0 0 C4.75 0.75 4.75 0.75 7 3 C5.35 3.66 3.7 4.32 2 5 C1.34 4.34 0.68 3.68 0 3 C0 2.01 0 1.02 0 0 Z " fill="#F29B0C" transform="translate(688,111)"/>
<path d="M0 0 C-1.39332574 3.36720387 -2.9789286 4.9859524 -6 7 C-6 4 -6 4 -4.125 1.8125 C-2 0 -2 0 0 0 Z " fill="#545557" transform="translate(196,225)"/>
<path d="M0 0 C0 0.66 0 1.32 0 2 C-2.64 2.33 -5.28 2.66 -8 3 C-8 2.34 -8 1.68 -8 1 C-5.10765685 0.17361624 -3.11257569 0 0 0 Z " fill="#D0010B" transform="translate(777,712)"/>
<path d="M0 0 C-0.33 0.66 -0.66 1.32 -1 2 C-4.0625 2.625 -4.0625 2.625 -7 3 C-6.67 2.01 -6.34 1.02 -6 0 C-3 -1 -3 -1 0 0 Z " fill="#D2010F" transform="translate(804,704)"/>
<path d="M0 0 C0.66 0.66 1.32 1.32 2 2 C0.35 3.65 -1.3 5.3 -3 7 C-3.66 6.67 -4.32 6.34 -5 6 C-3.35 4.02 -1.7 2.04 0 0 Z " fill="#525253" transform="translate(208,210)"/>
</svg>